<?xml version="1.0" encoding="UTF-8" standalone="no"?>
<!DOCTYPE svg PUBLIC "-//W3C//DTD SVG 1.1//EN" "http://www.w3.org/Graphics/SVG/1.1/DTD/svg11.dtd">
<svg width="100%" height="100%" viewBox="0 0 1920 300" version="1.1" xmlns="http://www.w3.org/2000/svg" xmlns:xlink="http://www.w3.org/1999/xlink" xml:space="preserve" xmlns:serif="http://www.serif.com/" style="fill-rule:evenodd;clip-rule:evenodd;stroke-linejoin:round;stroke-miterlimit:2;">
    <g id="BG" transform="matrix(1,0,0,3.2,0,-810)">
        <rect x="0" y="0" width="1920" height="600" style="fill:rgb(43,43,43);"/>
    </g>
    <g id="Containers" transform="matrix(0.579172,0,0,0.579172,-646.919,-251.642)">
        <g transform="matrix(1,0,0,1,4.256,141)">
            <circle cx="1307" cy="563" r="87" style="fill:rgb(45,255,0);"/>
            <g transform="matrix(0.388843,0,0,0.388843,1226.61,339.512)">
                <rect x="91" y="584" width="101.5" height="101.5" style="fill:rgb(0,92,54);"/>
            </g>
            <g transform="matrix(0.388843,0,0,0.388843,1226.61,292.851)">
                <rect x="91" y="584" width="101.5" height="101.5" style="fill:rgb(0,92,54);"/>
            </g>
            <g transform="matrix(0.388843,0,0,0.388843,1277.16,292.851)">
                <rect x="91" y="584" width="101.5" height="101.5" style="fill:rgb(0,92,54);"/>
            </g>
            <g transform="matrix(0.388843,0,0,0.388843,1277.16,339.512)">
                <rect x="91" y="584" width="101.5" height="101.5" style="fill:rgb(0,92,54);"/>
            </g>
        </g>
        <g transform="matrix(1,0,0,1,165.256,274.464)">
            <circle cx="1307" cy="563" r="87" style="fill:rgb(45,255,0);"/>
            <g transform="matrix(0.388843,0,0,0.388843,1226.61,339.512)">
                <rect x="91" y="584" width="101.5" height="101.5" style="fill:rgb(0,92,54);"/>
            </g>
            <g transform="matrix(0.388843,0,0,0.388843,1226.61,292.851)">
                <rect x="91" y="584" width="101.5" height="101.5" style="fill:rgb(0,92,54);"/>
            </g>
            <g transform="matrix(0.388843,0,0,0.388843,1277.16,292.851)">
                <rect x="91" y="584" width="101.5" height="101.5" style="fill:rgb(0,92,54);"/>
            </g>
            <g transform="matrix(0.388843,0,0,0.388843,1277.16,339.512)">
                <rect x="91" y="584" width="101.5" height="101.5" style="fill:rgb(0,92,54);"/>
            </g>
        </g>
        <g transform="matrix(1,0,0,1,195.256,74)">
            <circle cx="1307" cy="563" r="87" style="fill:rgb(45,255,0);"/>
            <g transform="matrix(0.388843,0,0,0.388843,1226.61,339.512)">
                <rect x="91" y="584" width="101.5" height="101.5" style="fill:rgb(0,92,54);"/>
            </g>
            <g transform="matrix(0.388843,0,0,0.388843,1226.61,292.851)">
                <rect x="91" y="584" width="101.5" height="101.5" style="fill:rgb(0,92,54);"/>
            </g>
            <g transform="matrix(0.388843,0,0,0.388843,1277.16,292.851)">
                <rect x="91" y="584" width="101.5" height="101.5" style="fill:rgb(0,92,54);"/>
            </g>
            <g transform="matrix(0.388843,0,0,0.388843,1277.16,339.512)">
                <rect x="91" y="584" width="101.5" height="101.5" style="fill:rgb(0,92,54);"/>
            </g>
        </g>
        <g transform="matrix(1,0,0,1,741.605,281.113)">
            <g transform="matrix(64,0,0,64,510.667,232)">
                <path d="M0.451,-0.791C0.544,-0.791 0.627,-0.761 0.698,-0.702C0.704,-0.697 0.707,-0.691 0.707,-0.682C0.707,-0.674 0.704,-0.667 0.699,-0.661C0.694,-0.654 0.686,-0.651 0.677,-0.651C0.67,-0.651 0.661,-0.655 0.652,-0.663C0.601,-0.708 0.534,-0.731 0.451,-0.731C0.392,-0.731 0.338,-0.715 0.286,-0.684C0.235,-0.653 0.195,-0.611 0.165,-0.559C0.135,-0.506 0.12,-0.45 0.12,-0.391C0.12,-0.33 0.135,-0.273 0.165,-0.221C0.194,-0.168 0.234,-0.127 0.285,-0.096C0.337,-0.065 0.392,-0.05 0.451,-0.05C0.53,-0.05 0.599,-0.074 0.658,-0.123C0.663,-0.126 0.668,-0.128 0.673,-0.128C0.681,-0.128 0.688,-0.125 0.695,-0.119C0.701,-0.113 0.704,-0.106 0.704,-0.097C0.704,-0.088 0.702,-0.081 0.697,-0.076C0.64,-0.019 0.558,0.01 0.451,0.01C0.381,0.01 0.316,-0.008 0.256,-0.045C0.196,-0.081 0.148,-0.13 0.113,-0.192C0.078,-0.253 0.06,-0.32 0.06,-0.391C0.06,-0.462 0.078,-0.529 0.113,-0.59C0.148,-0.651 0.195,-0.7 0.255,-0.737C0.314,-0.773 0.38,-0.791 0.451,-0.791Z" style="fill:white;fill-rule:nonzero;"/>
            </g>
            <g transform="matrix(64,0,0,64,557.195,232)">
                <path d="M0.34,-0.553C0.392,-0.553 0.439,-0.541 0.482,-0.517C0.525,-0.492 0.558,-0.459 0.583,-0.416C0.607,-0.373 0.619,-0.326 0.619,-0.273C0.619,-0.221 0.607,-0.174 0.583,-0.131C0.558,-0.088 0.525,-0.055 0.482,-0.031C0.439,-0.006 0.392,0.006 0.34,0.006C0.287,0.006 0.24,-0.006 0.197,-0.031C0.154,-0.055 0.121,-0.088 0.097,-0.131C0.072,-0.174 0.06,-0.221 0.06,-0.273C0.06,-0.326 0.072,-0.373 0.097,-0.416C0.121,-0.459 0.154,-0.492 0.197,-0.517C0.24,-0.541 0.287,-0.553 0.34,-0.553ZM0.34,-0.497C0.299,-0.497 0.261,-0.487 0.228,-0.468C0.195,-0.448 0.168,-0.421 0.149,-0.387C0.13,-0.353 0.12,-0.315 0.12,-0.273C0.12,-0.231 0.13,-0.193 0.149,-0.159C0.168,-0.125 0.195,-0.098 0.228,-0.079C0.261,-0.06 0.299,-0.05 0.34,-0.05C0.381,-0.05 0.419,-0.06 0.452,-0.079C0.485,-0.098 0.511,-0.125 0.531,-0.159C0.55,-0.193 0.559,-0.231 0.559,-0.273C0.559,-0.315 0.55,-0.353 0.531,-0.387C0.511,-0.421 0.485,-0.448 0.452,-0.468C0.419,-0.487 0.381,-0.497 0.34,-0.497Z" style="fill:white;fill-rule:nonzero;"/>
            </g>
            <g transform="matrix(64,0,0,64,600.651,232)">
                <path d="M0.34,-0.554C0.389,-0.554 0.432,-0.544 0.47,-0.524C0.509,-0.504 0.539,-0.475 0.561,-0.437C0.582,-0.398 0.593,-0.352 0.593,-0.299L0.593,-0.03C0.593,-0.021 0.59,-0.014 0.585,-0.009C0.579,-0.003 0.572,0 0.563,0C0.554,0 0.547,-0.003 0.542,-0.009C0.536,-0.014 0.533,-0.021 0.533,-0.03L0.533,-0.299C0.533,-0.362 0.515,-0.411 0.48,-0.444C0.444,-0.477 0.397,-0.494 0.34,-0.494C0.305,-0.494 0.273,-0.487 0.244,-0.473C0.215,-0.46 0.192,-0.441 0.175,-0.417C0.158,-0.392 0.15,-0.365 0.15,-0.336L0.15,-0.03C0.15,-0.021 0.147,-0.014 0.142,-0.009C0.137,-0.003 0.129,0 0.12,0C0.111,0 0.104,-0.003 0.099,-0.009C0.093,-0.014 0.09,-0.021 0.09,-0.03L0.09,-0.517C0.09,-0.526 0.093,-0.534 0.099,-0.539C0.104,-0.544 0.111,-0.547 0.12,-0.547C0.129,-0.547 0.137,-0.544 0.142,-0.539C0.147,-0.534 0.15,-0.526 0.15,-0.517L0.15,-0.465C0.173,-0.493 0.2,-0.515 0.233,-0.531C0.266,-0.546 0.301,-0.554 0.34,-0.554Z" style="fill:white;fill-rule:nonzero;"/>
            </g>
            <g transform="matrix(64,0,0,64,643.723,232)">
                <path d="M0.337,-0.061C0.346,-0.061 0.354,-0.058 0.36,-0.053C0.365,-0.047 0.368,-0.039 0.368,-0.03C0.368,-0.021 0.365,-0.014 0.36,-0.009C0.354,-0.003 0.346,0 0.337,0L0.314,0C0.277,0 0.245,-0.008 0.216,-0.025C0.187,-0.042 0.165,-0.065 0.149,-0.094C0.133,-0.123 0.125,-0.155 0.125,-0.192L0.125,-0.473L0.047,-0.473C0.039,-0.473 0.033,-0.475 0.028,-0.481C0.023,-0.486 0.02,-0.492 0.02,-0.5C0.02,-0.508 0.023,-0.515 0.028,-0.52C0.033,-0.525 0.039,-0.527 0.047,-0.527L0.125,-0.527L0.125,-0.69C0.125,-0.699 0.128,-0.707 0.134,-0.713C0.139,-0.718 0.146,-0.721 0.155,-0.721C0.164,-0.721 0.172,-0.718 0.178,-0.713C0.183,-0.707 0.186,-0.699 0.186,-0.69L0.186,-0.527L0.318,-0.527C0.326,-0.527 0.333,-0.525 0.338,-0.52C0.343,-0.515 0.345,-0.508 0.345,-0.5C0.345,-0.492 0.343,-0.486 0.338,-0.481C0.333,-0.475 0.326,-0.473 0.318,-0.473L0.186,-0.473L0.186,-0.192C0.186,-0.153 0.198,-0.122 0.222,-0.098C0.246,-0.073 0.277,-0.061 0.315,-0.061L0.337,-0.061Z" style="fill:white;fill-rule:nonzero;"/>
            </g>
            <g transform="matrix(64,0,0,64,669.515,232)">
                <path d="M0.34,-0.553C0.392,-0.553 0.439,-0.541 0.482,-0.517C0.525,-0.492 0.558,-0.459 0.583,-0.416C0.607,-0.373 0.619,-0.326 0.619,-0.273L0.619,-0.03C0.619,-0.021 0.616,-0.014 0.611,-0.009C0.606,-0.003 0.598,0 0.589,0C0.58,0 0.573,-0.003 0.568,-0.009C0.562,-0.014 0.559,-0.021 0.559,-0.03L0.559,-0.108C0.537,-0.073 0.507,-0.045 0.469,-0.025C0.43,-0.004 0.387,0.006 0.34,0.006C0.287,0.006 0.24,-0.006 0.197,-0.031C0.154,-0.055 0.121,-0.088 0.097,-0.131C0.072,-0.174 0.06,-0.221 0.06,-0.273C0.06,-0.326 0.072,-0.373 0.097,-0.416C0.121,-0.459 0.154,-0.492 0.197,-0.517C0.24,-0.541 0.287,-0.553 0.34,-0.553ZM0.34,-0.05C0.381,-0.05 0.419,-0.06 0.452,-0.079C0.485,-0.098 0.511,-0.125 0.531,-0.159C0.55,-0.193 0.559,-0.231 0.559,-0.273C0.559,-0.315 0.55,-0.353 0.531,-0.387C0.511,-0.421 0.485,-0.448 0.452,-0.468C0.419,-0.487 0.381,-0.497 0.34,-0.497C0.299,-0.497 0.261,-0.487 0.228,-0.468C0.195,-0.448 0.168,-0.421 0.149,-0.387C0.13,-0.353 0.12,-0.315 0.12,-0.273C0.12,-0.231 0.13,-0.193 0.149,-0.159C0.168,-0.125 0.195,-0.098 0.228,-0.079C0.261,-0.06 0.299,-0.05 0.34,-0.05Z" style="fill:white;fill-rule:nonzero;"/>
            </g>
            <g transform="matrix(64,0,0,64,712.971,232)">
                <path d="M0.11,-0.517C0.11,-0.526 0.113,-0.534 0.118,-0.539C0.124,-0.544 0.131,-0.547 0.14,-0.547C0.149,-0.547 0.157,-0.544 0.162,-0.539C0.167,-0.534 0.17,-0.526 0.17,-0.517L0.17,-0.03C0.17,-0.021 0.167,-0.014 0.162,-0.009C0.157,-0.003 0.149,0 0.14,0C0.131,0 0.124,-0.003 0.118,-0.009C0.113,-0.014 0.11,-0.021 0.11,-0.03L0.11,-0.517ZM0.14,-0.755C0.153,-0.755 0.164,-0.751 0.172,-0.743C0.182,-0.735 0.186,-0.724 0.186,-0.709C0.186,-0.696 0.182,-0.685 0.172,-0.676C0.164,-0.667 0.152,-0.662 0.139,-0.662C0.126,-0.662 0.115,-0.667 0.106,-0.676C0.097,-0.685 0.093,-0.696 0.093,-0.709C0.093,-0.724 0.098,-0.735 0.107,-0.743C0.116,-0.751 0.127,-0.755 0.14,-0.755Z" style="fill:white;fill-rule:nonzero;"/>
            </g>
            <g transform="matrix(64,0,0,64,730.891,232)">
                <path d="M0.34,-0.554C0.389,-0.554 0.432,-0.544 0.47,-0.524C0.509,-0.504 0.539,-0.475 0.561,-0.437C0.582,-0.398 0.593,-0.352 0.593,-0.299L0.593,-0.03C0.593,-0.021 0.59,-0.014 0.585,-0.009C0.579,-0.003 0.572,0 0.563,0C0.554,0 0.547,-0.003 0.542,-0.009C0.536,-0.014 0.533,-0.021 0.533,-0.03L0.533,-0.299C0.533,-0.362 0.515,-0.411 0.48,-0.444C0.444,-0.477 0.397,-0.494 0.34,-0.494C0.305,-0.494 0.273,-0.487 0.244,-0.473C0.215,-0.46 0.192,-0.441 0.175,-0.417C0.158,-0.392 0.15,-0.365 0.15,-0.336L0.15,-0.03C0.15,-0.021 0.147,-0.014 0.142,-0.009C0.137,-0.003 0.129,0 0.12,0C0.111,0 0.104,-0.003 0.099,-0.009C0.093,-0.014 0.09,-0.021 0.09,-0.03L0.09,-0.517C0.09,-0.526 0.093,-0.534 0.099,-0.539C0.104,-0.544 0.111,-0.547 0.12,-0.547C0.129,-0.547 0.137,-0.544 0.142,-0.539C0.147,-0.534 0.15,-0.526 0.15,-0.517L0.15,-0.465C0.173,-0.493 0.2,-0.515 0.233,-0.531C0.266,-0.546 0.301,-0.554 0.34,-0.554Z" style="fill:white;fill-rule:nonzero;"/>
            </g>
            <g transform="matrix(64,0,0,64,773.963,232)">
                <path d="M0.317,-0.552C0.366,-0.552 0.409,-0.541 0.448,-0.518C0.486,-0.495 0.516,-0.463 0.537,-0.422C0.558,-0.381 0.569,-0.335 0.569,-0.283C0.569,-0.274 0.566,-0.268 0.561,-0.263C0.556,-0.258 0.549,-0.255 0.54,-0.255L0.121,-0.255C0.123,-0.216 0.133,-0.181 0.152,-0.15C0.171,-0.118 0.196,-0.094 0.227,-0.077C0.258,-0.06 0.293,-0.051 0.332,-0.051C0.358,-0.051 0.384,-0.056 0.41,-0.065C0.437,-0.074 0.458,-0.085 0.473,-0.1C0.48,-0.105 0.487,-0.108 0.494,-0.108C0.501,-0.108 0.507,-0.106 0.512,-0.102C0.519,-0.096 0.523,-0.089 0.523,-0.081C0.523,-0.074 0.52,-0.068 0.514,-0.062C0.493,-0.043 0.465,-0.027 0.431,-0.014C0.396,-0.001 0.363,0.005 0.332,0.005C0.279,0.005 0.233,-0.007 0.192,-0.031C0.151,-0.054 0.118,-0.087 0.095,-0.13C0.072,-0.172 0.06,-0.22 0.06,-0.273C0.06,-0.327 0.071,-0.375 0.093,-0.418C0.114,-0.46 0.145,-0.493 0.184,-0.517C0.223,-0.54 0.267,-0.552 0.317,-0.552ZM0.317,-0.496C0.265,-0.496 0.221,-0.479 0.186,-0.444C0.15,-0.409 0.129,-0.364 0.122,-0.307L0.511,-0.307C0.506,-0.364 0.486,-0.409 0.451,-0.444C0.416,-0.479 0.371,-0.496 0.317,-0.496Z" style="fill:white;fill-rule:nonzero;"/>
            </g>
            <g transform="matrix(64,0,0,64,812.939,232)">
                <path d="M0.322,-0.553C0.373,-0.553 0.398,-0.542 0.398,-0.52C0.398,-0.517 0.398,-0.514 0.397,-0.512C0.395,-0.505 0.392,-0.5 0.388,-0.497C0.383,-0.494 0.377,-0.492 0.37,-0.492C0.364,-0.492 0.356,-0.493 0.346,-0.494C0.337,-0.495 0.329,-0.496 0.322,-0.496C0.289,-0.496 0.259,-0.489 0.233,-0.475C0.207,-0.461 0.187,-0.442 0.172,-0.417C0.157,-0.392 0.15,-0.365 0.15,-0.334L0.15,-0.03C0.15,-0.021 0.147,-0.014 0.142,-0.009C0.137,-0.003 0.129,0 0.12,0C0.111,0 0.104,-0.003 0.099,-0.009C0.093,-0.014 0.09,-0.021 0.09,-0.03L0.09,-0.517C0.09,-0.526 0.093,-0.534 0.099,-0.539C0.104,-0.544 0.111,-0.547 0.12,-0.547C0.129,-0.547 0.137,-0.544 0.142,-0.539C0.147,-0.534 0.15,-0.526 0.15,-0.517L0.15,-0.455C0.169,-0.486 0.194,-0.51 0.224,-0.527C0.254,-0.544 0.287,-0.553 0.322,-0.553Z" style="fill:white;fill-rule:nonzero;"/>
            </g>
            <g transform="matrix(64,0,0,64,840.971,232)">
                <path d="M0.277,-0.553C0.361,-0.553 0.425,-0.523 0.468,-0.463C0.472,-0.458 0.474,-0.453 0.474,-0.446C0.474,-0.437 0.469,-0.429 0.458,-0.423C0.451,-0.42 0.446,-0.419 0.443,-0.419C0.433,-0.419 0.425,-0.423 0.418,-0.432C0.384,-0.475 0.336,-0.497 0.275,-0.497C0.234,-0.497 0.202,-0.488 0.178,-0.47C0.154,-0.453 0.142,-0.431 0.142,-0.405C0.142,-0.378 0.154,-0.357 0.177,-0.341C0.2,-0.325 0.238,-0.313 0.292,-0.305C0.363,-0.295 0.413,-0.276 0.445,-0.249C0.475,-0.221 0.491,-0.187 0.491,-0.148C0.491,-0.117 0.481,-0.09 0.462,-0.067C0.442,-0.044 0.416,-0.026 0.383,-0.013C0.35,0 0.315,0.006 0.276,0.006C0.237,0.006 0.2,-0.001 0.163,-0.015C0.126,-0.028 0.096,-0.049 0.072,-0.077C0.067,-0.082 0.065,-0.088 0.065,-0.095C0.065,-0.104 0.069,-0.112 0.078,-0.118C0.082,-0.121 0.088,-0.123 0.095,-0.123C0.104,-0.123 0.112,-0.119 0.118,-0.112C0.151,-0.071 0.205,-0.051 0.279,-0.051C0.332,-0.051 0.371,-0.06 0.396,-0.079C0.421,-0.098 0.433,-0.122 0.433,-0.151C0.433,-0.204 0.382,-0.237 0.28,-0.252C0.215,-0.261 0.167,-0.279 0.134,-0.305C0.101,-0.331 0.084,-0.362 0.084,-0.399C0.084,-0.448 0.102,-0.486 0.138,-0.513C0.173,-0.54 0.22,-0.553 0.277,-0.553Z" style="fill:white;fill-rule:nonzero;"/>
            </g>
        </g>
    </g>
</svg>
