<?xml version="1.0" encoding="UTF-8" standalone="no"?>
<!DOCTYPE svg PUBLIC "-//W3C//DTD SVG 1.1//EN" "http://www.w3.org/Graphics/SVG/1.1/DTD/svg11.dtd">
<svg width="100%" height="100%" viewBox="0 0 1920 300" version="1.1" xmlns="http://www.w3.org/2000/svg" xmlns:xlink="http://www.w3.org/1999/xlink" xml:space="preserve" xmlns:serif="http://www.serif.com/" style="fill-rule:evenodd;clip-rule:evenodd;stroke-linejoin:round;stroke-miterlimit:2;">
    <g id="BG" transform="matrix(1,0,0,3.2,0,-810)">
        <rect x="0" y="0" width="1920" height="600" style="fill:rgb(43,43,43);"/>
    </g>
    <g id="Manifest" transform="matrix(0.624038,0,0,0.624038,-808.819,-667.152)">
        <g transform="matrix(1.10391,0,0,1.10391,470.807,973.375)">
            <path d="M985.196,177.528C970.469,175.491 955.531,175.491 940.804,177.528L913.404,218.265C945.16,205.112 980.84,205.112 1012.6,218.265L985.196,177.528ZM865.224,208.834C853.37,217.807 842.807,228.37 833.834,240.224L843.265,288.404C856.419,256.649 881.649,231.419 913.404,218.265L865.224,208.834ZM802.528,315.804C800.491,330.531 800.491,345.469 802.528,360.196L843.265,387.596C830.112,355.84 830.112,320.16 843.265,288.404L802.528,315.804ZM833.834,435.776C842.807,447.63 853.37,458.193 865.224,467.166L913.404,457.735C881.649,444.581 856.419,419.351 843.265,387.596L833.834,435.776ZM940.804,498.472C955.531,500.509 970.469,500.509 985.196,498.472L1012.6,457.735C980.84,470.888 945.16,470.888 913.404,457.735L940.804,498.472ZM1060.78,467.166C1072.63,458.193 1083.19,447.63 1092.17,435.776L1082.74,387.596C1069.58,419.351 1044.35,444.581 1012.6,457.735L1060.78,467.166ZM1123.47,360.196C1125.51,345.469 1125.51,330.531 1123.47,315.804L1082.74,288.404C1095.89,320.16 1095.89,355.84 1082.74,387.596L1123.47,360.196ZM1092.17,240.224C1083.19,228.37 1072.63,217.807 1060.78,208.834L1012.6,218.265C1044.35,231.419 1069.58,256.649 1082.74,288.404L1092.17,240.224Z" style="fill:rgb(0,255,59);"/>
        </g>
        <g transform="matrix(1,0,0,1,875.275,911.573)">
            <g transform="matrix(64,0,0,64,510.667,232)">
                <path d="M0.852,-0.781C0.861,-0.781 0.868,-0.778 0.873,-0.773C0.878,-0.767 0.881,-0.76 0.881,-0.751L0.881,-0.03C0.881,-0.021 0.878,-0.014 0.873,-0.009C0.868,-0.003 0.861,0 0.852,0C0.843,0 0.836,-0.003 0.83,-0.009C0.824,-0.014 0.821,-0.021 0.821,-0.03L0.821,-0.643L0.517,-0.024C0.512,-0.015 0.504,-0.01 0.491,-0.01C0.479,-0.01 0.47,-0.016 0.463,-0.029L0.16,-0.634L0.16,-0.03C0.16,-0.021 0.157,-0.014 0.152,-0.009C0.146,-0.003 0.139,0 0.13,0C0.121,0 0.114,-0.003 0.109,-0.009C0.103,-0.014 0.1,-0.021 0.1,-0.03L0.1,-0.751C0.1,-0.76 0.103,-0.767 0.109,-0.773C0.114,-0.778 0.121,-0.781 0.13,-0.781C0.143,-0.781 0.152,-0.776 0.157,-0.766L0.493,-0.102L0.825,-0.766C0.831,-0.776 0.84,-0.781 0.852,-0.781Z" style="fill:white;fill-rule:nonzero;"/>
            </g>
            <g transform="matrix(64,0,0,64,573.451,232)">
                <path d="M0.34,-0.553C0.392,-0.553 0.439,-0.541 0.482,-0.517C0.525,-0.492 0.558,-0.459 0.583,-0.416C0.607,-0.373 0.619,-0.326 0.619,-0.273L0.619,-0.03C0.619,-0.021 0.616,-0.014 0.611,-0.009C0.606,-0.003 0.598,0 0.589,0C0.58,0 0.573,-0.003 0.568,-0.009C0.562,-0.014 0.559,-0.021 0.559,-0.03L0.559,-0.108C0.537,-0.073 0.507,-0.045 0.469,-0.025C0.43,-0.004 0.387,0.006 0.34,0.006C0.287,0.006 0.24,-0.006 0.197,-0.031C0.154,-0.055 0.121,-0.088 0.097,-0.131C0.072,-0.174 0.06,-0.221 0.06,-0.273C0.06,-0.326 0.072,-0.373 0.097,-0.416C0.121,-0.459 0.154,-0.492 0.197,-0.517C0.24,-0.541 0.287,-0.553 0.34,-0.553ZM0.34,-0.05C0.381,-0.05 0.419,-0.06 0.452,-0.079C0.485,-0.098 0.511,-0.125 0.531,-0.159C0.55,-0.193 0.559,-0.231 0.559,-0.273C0.559,-0.315 0.55,-0.353 0.531,-0.387C0.511,-0.421 0.485,-0.448 0.452,-0.468C0.419,-0.487 0.381,-0.497 0.34,-0.497C0.299,-0.497 0.261,-0.487 0.228,-0.468C0.195,-0.448 0.168,-0.421 0.149,-0.387C0.13,-0.353 0.12,-0.315 0.12,-0.273C0.12,-0.231 0.13,-0.193 0.149,-0.159C0.168,-0.125 0.195,-0.098 0.228,-0.079C0.261,-0.06 0.299,-0.05 0.34,-0.05Z" style="fill:white;fill-rule:nonzero;"/>
            </g>
            <g transform="matrix(64,0,0,64,616.907,232)">
                <path d="M0.34,-0.554C0.389,-0.554 0.432,-0.544 0.47,-0.524C0.509,-0.504 0.539,-0.475 0.561,-0.437C0.582,-0.398 0.593,-0.352 0.593,-0.299L0.593,-0.03C0.593,-0.021 0.59,-0.014 0.585,-0.009C0.579,-0.003 0.572,0 0.563,0C0.554,0 0.547,-0.003 0.542,-0.009C0.536,-0.014 0.533,-0.021 0.533,-0.03L0.533,-0.299C0.533,-0.362 0.515,-0.411 0.48,-0.444C0.444,-0.477 0.397,-0.494 0.34,-0.494C0.305,-0.494 0.273,-0.487 0.244,-0.473C0.215,-0.46 0.192,-0.441 0.175,-0.417C0.158,-0.392 0.15,-0.365 0.15,-0.336L0.15,-0.03C0.15,-0.021 0.147,-0.014 0.142,-0.009C0.137,-0.003 0.129,0 0.12,0C0.111,0 0.104,-0.003 0.099,-0.009C0.093,-0.014 0.09,-0.021 0.09,-0.03L0.09,-0.517C0.09,-0.526 0.093,-0.534 0.099,-0.539C0.104,-0.544 0.111,-0.547 0.12,-0.547C0.129,-0.547 0.137,-0.544 0.142,-0.539C0.147,-0.534 0.15,-0.526 0.15,-0.517L0.15,-0.465C0.173,-0.493 0.2,-0.515 0.233,-0.531C0.266,-0.546 0.301,-0.554 0.34,-0.554Z" style="fill:white;fill-rule:nonzero;"/>
            </g>
            <g transform="matrix(64,0,0,64,659.979,232)">
                <path d="M0.11,-0.517C0.11,-0.526 0.113,-0.534 0.118,-0.539C0.124,-0.544 0.131,-0.547 0.14,-0.547C0.149,-0.547 0.157,-0.544 0.162,-0.539C0.167,-0.534 0.17,-0.526 0.17,-0.517L0.17,-0.03C0.17,-0.021 0.167,-0.014 0.162,-0.009C0.157,-0.003 0.149,0 0.14,0C0.131,0 0.124,-0.003 0.118,-0.009C0.113,-0.014 0.11,-0.021 0.11,-0.03L0.11,-0.517ZM0.14,-0.755C0.153,-0.755 0.164,-0.751 0.172,-0.743C0.182,-0.735 0.186,-0.724 0.186,-0.709C0.186,-0.696 0.182,-0.685 0.172,-0.676C0.164,-0.667 0.152,-0.662 0.139,-0.662C0.126,-0.662 0.115,-0.667 0.106,-0.676C0.097,-0.685 0.093,-0.696 0.093,-0.709C0.093,-0.724 0.098,-0.735 0.107,-0.743C0.116,-0.751 0.127,-0.755 0.14,-0.755Z" style="fill:white;fill-rule:nonzero;"/>
            </g>
            <g transform="matrix(64,0,0,64,677.899,232)">
                <path d="M0.335,-0.727C0.286,-0.727 0.251,-0.711 0.229,-0.679C0.207,-0.646 0.196,-0.603 0.196,-0.548L0.196,-0.527L0.328,-0.527C0.336,-0.527 0.343,-0.525 0.347,-0.52C0.353,-0.515 0.355,-0.508 0.355,-0.5C0.355,-0.492 0.353,-0.486 0.347,-0.481C0.343,-0.475 0.336,-0.473 0.328,-0.473L0.196,-0.473L0.196,-0.03C0.196,-0.021 0.193,-0.014 0.188,-0.009C0.182,-0.003 0.174,0 0.165,0C0.156,0 0.149,-0.003 0.143,-0.009C0.138,-0.014 0.135,-0.021 0.135,-0.03L0.135,-0.473L0.057,-0.473C0.049,-0.473 0.043,-0.475 0.038,-0.481C0.033,-0.486 0.03,-0.492 0.03,-0.5C0.03,-0.508 0.033,-0.515 0.038,-0.52C0.043,-0.525 0.049,-0.527 0.057,-0.527L0.135,-0.527L0.135,-0.548C0.135,-0.619 0.152,-0.676 0.185,-0.718C0.218,-0.76 0.268,-0.781 0.335,-0.781C0.344,-0.781 0.351,-0.779 0.357,-0.774C0.362,-0.769 0.365,-0.762 0.365,-0.754C0.365,-0.746 0.362,-0.74 0.357,-0.735C0.351,-0.73 0.344,-0.727 0.335,-0.727Z" style="fill:white;fill-rule:nonzero;"/>
            </g>
            <g transform="matrix(64,0,0,64,699.979,232)">
                <path d="M0.317,-0.552C0.366,-0.552 0.409,-0.541 0.448,-0.518C0.486,-0.495 0.516,-0.463 0.537,-0.422C0.558,-0.381 0.569,-0.335 0.569,-0.283C0.569,-0.274 0.566,-0.268 0.561,-0.263C0.556,-0.258 0.549,-0.255 0.54,-0.255L0.121,-0.255C0.123,-0.216 0.133,-0.181 0.152,-0.15C0.171,-0.118 0.196,-0.094 0.227,-0.077C0.258,-0.06 0.293,-0.051 0.332,-0.051C0.358,-0.051 0.384,-0.056 0.41,-0.065C0.437,-0.074 0.458,-0.085 0.473,-0.1C0.48,-0.105 0.487,-0.108 0.494,-0.108C0.501,-0.108 0.507,-0.106 0.512,-0.102C0.519,-0.096 0.523,-0.089 0.523,-0.081C0.523,-0.074 0.52,-0.068 0.514,-0.062C0.493,-0.043 0.465,-0.027 0.431,-0.014C0.396,-0.001 0.363,0.005 0.332,0.005C0.279,0.005 0.233,-0.007 0.192,-0.031C0.151,-0.054 0.118,-0.087 0.095,-0.13C0.072,-0.172 0.06,-0.22 0.06,-0.273C0.06,-0.327 0.071,-0.375 0.093,-0.418C0.114,-0.46 0.145,-0.493 0.184,-0.517C0.223,-0.54 0.267,-0.552 0.317,-0.552ZM0.317,-0.496C0.265,-0.496 0.221,-0.479 0.186,-0.444C0.15,-0.409 0.129,-0.364 0.122,-0.307L0.511,-0.307C0.506,-0.364 0.486,-0.409 0.451,-0.444C0.416,-0.479 0.371,-0.496 0.317,-0.496Z" style="fill:white;fill-rule:nonzero;"/>
            </g>
            <g transform="matrix(64,0,0,64,738.955,232)">
                <path d="M0.277,-0.553C0.361,-0.553 0.425,-0.523 0.468,-0.463C0.472,-0.458 0.474,-0.453 0.474,-0.446C0.474,-0.437 0.469,-0.429 0.458,-0.423C0.451,-0.42 0.446,-0.419 0.443,-0.419C0.433,-0.419 0.425,-0.423 0.418,-0.432C0.384,-0.475 0.336,-0.497 0.275,-0.497C0.234,-0.497 0.202,-0.488 0.178,-0.47C0.154,-0.453 0.142,-0.431 0.142,-0.405C0.142,-0.378 0.154,-0.357 0.177,-0.341C0.2,-0.325 0.238,-0.313 0.292,-0.305C0.363,-0.295 0.413,-0.276 0.445,-0.249C0.475,-0.221 0.491,-0.187 0.491,-0.148C0.491,-0.117 0.481,-0.09 0.462,-0.067C0.442,-0.044 0.416,-0.026 0.383,-0.013C0.35,0 0.315,0.006 0.276,0.006C0.237,0.006 0.2,-0.001 0.163,-0.015C0.126,-0.028 0.096,-0.049 0.072,-0.077C0.067,-0.082 0.065,-0.088 0.065,-0.095C0.065,-0.104 0.069,-0.112 0.078,-0.118C0.082,-0.121 0.088,-0.123 0.095,-0.123C0.104,-0.123 0.112,-0.119 0.118,-0.112C0.151,-0.071 0.205,-0.051 0.279,-0.051C0.332,-0.051 0.371,-0.06 0.396,-0.079C0.421,-0.098 0.433,-0.122 0.433,-0.151C0.433,-0.204 0.382,-0.237 0.28,-0.252C0.215,-0.261 0.167,-0.279 0.134,-0.305C0.101,-0.331 0.084,-0.362 0.084,-0.399C0.084,-0.448 0.102,-0.486 0.138,-0.513C0.173,-0.54 0.22,-0.553 0.277,-0.553Z" style="fill:white;fill-rule:nonzero;"/>
            </g>
            <g transform="matrix(64,0,0,64,773.259,232)">
                <path d="M0.337,-0.061C0.346,-0.061 0.354,-0.058 0.36,-0.053C0.365,-0.047 0.368,-0.039 0.368,-0.03C0.368,-0.021 0.365,-0.014 0.36,-0.009C0.354,-0.003 0.346,0 0.337,0L0.314,0C0.277,0 0.245,-0.008 0.216,-0.025C0.187,-0.042 0.165,-0.065 0.149,-0.094C0.133,-0.123 0.125,-0.155 0.125,-0.192L0.125,-0.473L0.047,-0.473C0.039,-0.473 0.033,-0.475 0.028,-0.481C0.023,-0.486 0.02,-0.492 0.02,-0.5C0.02,-0.508 0.023,-0.515 0.028,-0.52C0.033,-0.525 0.039,-0.527 0.047,-0.527L0.125,-0.527L0.125,-0.69C0.125,-0.699 0.128,-0.707 0.134,-0.713C0.139,-0.718 0.146,-0.721 0.155,-0.721C0.164,-0.721 0.172,-0.718 0.178,-0.713C0.183,-0.707 0.186,-0.699 0.186,-0.69L0.186,-0.527L0.318,-0.527C0.326,-0.527 0.333,-0.525 0.338,-0.52C0.343,-0.515 0.345,-0.508 0.345,-0.5C0.345,-0.492 0.343,-0.486 0.338,-0.481C0.333,-0.475 0.326,-0.473 0.318,-0.473L0.186,-0.473L0.186,-0.192C0.186,-0.153 0.198,-0.122 0.222,-0.098C0.246,-0.073 0.277,-0.061 0.315,-0.061L0.337,-0.061Z" style="fill:white;fill-rule:nonzero;"/>
            </g>
        </g>
    </g>
</svg>
