<?xml version="1.0" encoding="UTF-8" standalone="no"?>
<!DOCTYPE svg PUBLIC "-//W3C//DTD SVG 1.1//EN" "http://www.w3.org/Graphics/SVG/1.1/DTD/svg11.dtd">
<svg width="100%" height="100%" viewBox="0 0 1920 300" version="1.1" xmlns="http://www.w3.org/2000/svg" xmlns:xlink="http://www.w3.org/1999/xlink" xml:space="preserve" xmlns:serif="http://www.serif.com/" style="fill-rule:evenodd;clip-rule:evenodd;stroke-linejoin:round;stroke-miterlimit:2;">
    <g id="BG" transform="matrix(1,0,0,3.2,0,-810)">
        <rect x="0" y="0" width="1920" height="600" style="fill:rgb(43,43,43);"/>
    </g>
    <g id="Metadata" transform="matrix(0.52339,0,0,0.52339,-361.836,-676.63)">
        <g transform="matrix(1,0,0,1,-218,-115.5)">
            <path d="M1190.71,1573.79C1190.71,1550.17 1209.88,1531 1233.5,1531C1257.12,1531 1276.29,1550.17 1276.29,1573.79C1288.1,1553.34 1314.3,1546.32 1334.75,1558.13C1355.2,1569.94 1362.22,1596.13 1350.41,1616.59C1370.87,1604.78 1397.06,1611.8 1408.87,1632.25C1420.68,1652.7 1413.66,1678.9 1393.21,1690.71C1416.83,1690.71 1436,1709.88 1436,1733.5C1436,1757.12 1416.83,1776.29 1393.21,1776.29C1413.66,1788.1 1420.68,1814.3 1408.87,1834.75C1397.06,1855.2 1370.87,1862.22 1350.41,1850.41C1362.22,1870.87 1355.2,1897.06 1334.75,1908.87C1314.3,1920.68 1288.1,1913.66 1276.29,1893.21C1276.29,1916.83 1257.12,1936 1233.5,1936C1209.88,1936 1190.71,1916.83 1190.71,1893.21C1178.9,1913.66 1152.7,1920.68 1132.25,1908.87C1111.8,1897.06 1104.78,1870.87 1116.59,1850.41C1096.13,1862.22 1069.94,1855.2 1058.13,1834.75C1046.32,1814.3 1053.34,1788.1 1073.79,1776.29C1050.17,1776.29 1031,1757.12 1031,1733.5C1031,1709.88 1050.17,1690.71 1073.79,1690.71C1053.34,1678.9 1046.32,1652.7 1058.13,1632.25C1069.94,1611.8 1096.13,1604.78 1116.59,1616.59C1104.78,1596.13 1111.8,1569.94 1132.25,1558.13C1152.7,1546.32 1178.9,1553.34 1190.71,1573.79Z" style="fill:rgb(196,81,193);"/>
        </g>
        <g transform="matrix(1,0,0,1,342.318,1159.86)">
            <g transform="matrix(64,0,0,64,510.667,232)">
                <path d="M0.852,-0.781C0.861,-0.781 0.868,-0.778 0.873,-0.773C0.878,-0.767 0.881,-0.76 0.881,-0.751L0.881,-0.03C0.881,-0.021 0.878,-0.014 0.873,-0.009C0.868,-0.003 0.861,0 0.852,0C0.843,0 0.836,-0.003 0.83,-0.009C0.824,-0.014 0.821,-0.021 0.821,-0.03L0.821,-0.643L0.517,-0.024C0.512,-0.015 0.504,-0.01 0.491,-0.01C0.479,-0.01 0.47,-0.016 0.463,-0.029L0.16,-0.634L0.16,-0.03C0.16,-0.021 0.157,-0.014 0.152,-0.009C0.146,-0.003 0.139,0 0.13,0C0.121,0 0.114,-0.003 0.109,-0.009C0.103,-0.014 0.1,-0.021 0.1,-0.03L0.1,-0.751C0.1,-0.76 0.103,-0.767 0.109,-0.773C0.114,-0.778 0.121,-0.781 0.13,-0.781C0.143,-0.781 0.152,-0.776 0.157,-0.766L0.493,-0.102L0.825,-0.766C0.831,-0.776 0.84,-0.781 0.852,-0.781Z" style="fill:white;fill-rule:nonzero;"/>
            </g>
            <g transform="matrix(64,0,0,64,573.451,232)">
                <path d="M0.317,-0.552C0.366,-0.552 0.409,-0.541 0.448,-0.518C0.486,-0.495 0.516,-0.463 0.537,-0.422C0.558,-0.381 0.569,-0.335 0.569,-0.283C0.569,-0.274 0.566,-0.268 0.561,-0.263C0.556,-0.258 0.549,-0.255 0.54,-0.255L0.121,-0.255C0.123,-0.216 0.133,-0.181 0.152,-0.15C0.171,-0.118 0.196,-0.094 0.227,-0.077C0.258,-0.06 0.293,-0.051 0.332,-0.051C0.358,-0.051 0.384,-0.056 0.41,-0.065C0.437,-0.074 0.458,-0.085 0.473,-0.1C0.48,-0.105 0.487,-0.108 0.494,-0.108C0.501,-0.108 0.507,-0.106 0.512,-0.102C0.519,-0.096 0.523,-0.089 0.523,-0.081C0.523,-0.074 0.52,-0.068 0.514,-0.062C0.493,-0.043 0.465,-0.027 0.431,-0.014C0.396,-0.001 0.363,0.005 0.332,0.005C0.279,0.005 0.233,-0.007 0.192,-0.031C0.151,-0.054 0.118,-0.087 0.095,-0.13C0.072,-0.172 0.06,-0.22 0.06,-0.273C0.06,-0.327 0.071,-0.375 0.093,-0.418C0.114,-0.46 0.145,-0.493 0.184,-0.517C0.223,-0.54 0.267,-0.552 0.317,-0.552ZM0.317,-0.496C0.265,-0.496 0.221,-0.479 0.186,-0.444C0.15,-0.409 0.129,-0.364 0.122,-0.307L0.511,-0.307C0.506,-0.364 0.486,-0.409 0.451,-0.444C0.416,-0.479 0.371,-0.496 0.317,-0.496Z" style="fill:white;fill-rule:nonzero;"/>
            </g>
            <g transform="matrix(64,0,0,64,612.427,232)">
                <path d="M0.337,-0.061C0.346,-0.061 0.354,-0.058 0.36,-0.053C0.365,-0.047 0.368,-0.039 0.368,-0.03C0.368,-0.021 0.365,-0.014 0.36,-0.009C0.354,-0.003 0.346,0 0.337,0L0.314,0C0.277,0 0.245,-0.008 0.216,-0.025C0.187,-0.042 0.165,-0.065 0.149,-0.094C0.133,-0.123 0.125,-0.155 0.125,-0.192L0.125,-0.473L0.047,-0.473C0.039,-0.473 0.033,-0.475 0.028,-0.481C0.023,-0.486 0.02,-0.492 0.02,-0.5C0.02,-0.508 0.023,-0.515 0.028,-0.52C0.033,-0.525 0.039,-0.527 0.047,-0.527L0.125,-0.527L0.125,-0.69C0.125,-0.699 0.128,-0.707 0.134,-0.713C0.139,-0.718 0.146,-0.721 0.155,-0.721C0.164,-0.721 0.172,-0.718 0.178,-0.713C0.183,-0.707 0.186,-0.699 0.186,-0.69L0.186,-0.527L0.318,-0.527C0.326,-0.527 0.333,-0.525 0.338,-0.52C0.343,-0.515 0.345,-0.508 0.345,-0.5C0.345,-0.492 0.343,-0.486 0.338,-0.481C0.333,-0.475 0.326,-0.473 0.318,-0.473L0.186,-0.473L0.186,-0.192C0.186,-0.153 0.198,-0.122 0.222,-0.098C0.246,-0.073 0.277,-0.061 0.315,-0.061L0.337,-0.061Z" style="fill:white;fill-rule:nonzero;"/>
            </g>
            <g transform="matrix(64,0,0,64,638.219,232)">
                <path d="M0.34,-0.553C0.392,-0.553 0.439,-0.541 0.482,-0.517C0.525,-0.492 0.558,-0.459 0.583,-0.416C0.607,-0.373 0.619,-0.326 0.619,-0.273L0.619,-0.03C0.619,-0.021 0.616,-0.014 0.611,-0.009C0.606,-0.003 0.598,0 0.589,0C0.58,0 0.573,-0.003 0.568,-0.009C0.562,-0.014 0.559,-0.021 0.559,-0.03L0.559,-0.108C0.537,-0.073 0.507,-0.045 0.469,-0.025C0.43,-0.004 0.387,0.006 0.34,0.006C0.287,0.006 0.24,-0.006 0.197,-0.031C0.154,-0.055 0.121,-0.088 0.097,-0.131C0.072,-0.174 0.06,-0.221 0.06,-0.273C0.06,-0.326 0.072,-0.373 0.097,-0.416C0.121,-0.459 0.154,-0.492 0.197,-0.517C0.24,-0.541 0.287,-0.553 0.34,-0.553ZM0.34,-0.05C0.381,-0.05 0.419,-0.06 0.452,-0.079C0.485,-0.098 0.511,-0.125 0.531,-0.159C0.55,-0.193 0.559,-0.231 0.559,-0.273C0.559,-0.315 0.55,-0.353 0.531,-0.387C0.511,-0.421 0.485,-0.448 0.452,-0.468C0.419,-0.487 0.381,-0.497 0.34,-0.497C0.299,-0.497 0.261,-0.487 0.228,-0.468C0.195,-0.448 0.168,-0.421 0.149,-0.387C0.13,-0.353 0.12,-0.315 0.12,-0.273C0.12,-0.231 0.13,-0.193 0.149,-0.159C0.168,-0.125 0.195,-0.098 0.228,-0.079C0.261,-0.06 0.299,-0.05 0.34,-0.05Z" style="fill:white;fill-rule:nonzero;"/>
            </g>
            <g transform="matrix(64,0,0,64,681.675,232)">
                <path d="M0.589,-0.781C0.598,-0.781 0.606,-0.778 0.611,-0.773C0.616,-0.768 0.619,-0.76 0.619,-0.751L0.619,-0.268C0.618,-0.217 0.606,-0.17 0.581,-0.128C0.556,-0.086 0.523,-0.053 0.481,-0.029C0.438,-0.006 0.391,0.006 0.34,0.006C0.287,0.006 0.24,-0.006 0.197,-0.031C0.154,-0.055 0.121,-0.088 0.097,-0.131C0.072,-0.174 0.06,-0.221 0.06,-0.274C0.06,-0.326 0.072,-0.373 0.097,-0.416C0.121,-0.459 0.154,-0.492 0.197,-0.517C0.24,-0.541 0.287,-0.553 0.34,-0.553C0.387,-0.553 0.43,-0.543 0.469,-0.523C0.507,-0.502 0.537,-0.474 0.559,-0.439L0.559,-0.751C0.559,-0.76 0.562,-0.768 0.568,-0.773C0.573,-0.778 0.58,-0.781 0.589,-0.781ZM0.34,-0.05C0.381,-0.05 0.419,-0.06 0.452,-0.08C0.485,-0.099 0.511,-0.126 0.531,-0.16C0.55,-0.194 0.559,-0.232 0.559,-0.274C0.559,-0.316 0.55,-0.354 0.531,-0.388C0.511,-0.422 0.485,-0.449 0.452,-0.468C0.419,-0.487 0.381,-0.497 0.34,-0.497C0.299,-0.497 0.261,-0.487 0.228,-0.468C0.195,-0.449 0.168,-0.422 0.149,-0.388C0.13,-0.354 0.12,-0.316 0.12,-0.274C0.12,-0.232 0.13,-0.194 0.149,-0.16C0.168,-0.126 0.195,-0.099 0.228,-0.08C0.261,-0.06 0.299,-0.05 0.34,-0.05Z" style="fill:white;fill-rule:nonzero;"/>
            </g>
            <g transform="matrix(64,0,0,64,727.051,232)">
                <path d="M0.34,-0.553C0.392,-0.553 0.439,-0.541 0.482,-0.517C0.525,-0.492 0.558,-0.459 0.583,-0.416C0.607,-0.373 0.619,-0.326 0.619,-0.273L0.619,-0.03C0.619,-0.021 0.616,-0.014 0.611,-0.009C0.606,-0.003 0.598,0 0.589,0C0.58,0 0.573,-0.003 0.568,-0.009C0.562,-0.014 0.559,-0.021 0.559,-0.03L0.559,-0.108C0.537,-0.073 0.507,-0.045 0.469,-0.025C0.43,-0.004 0.387,0.006 0.34,0.006C0.287,0.006 0.24,-0.006 0.197,-0.031C0.154,-0.055 0.121,-0.088 0.097,-0.131C0.072,-0.174 0.06,-0.221 0.06,-0.273C0.06,-0.326 0.072,-0.373 0.097,-0.416C0.121,-0.459 0.154,-0.492 0.197,-0.517C0.24,-0.541 0.287,-0.553 0.34,-0.553ZM0.34,-0.05C0.381,-0.05 0.419,-0.06 0.452,-0.079C0.485,-0.098 0.511,-0.125 0.531,-0.159C0.55,-0.193 0.559,-0.231 0.559,-0.273C0.559,-0.315 0.55,-0.353 0.531,-0.387C0.511,-0.421 0.485,-0.448 0.452,-0.468C0.419,-0.487 0.381,-0.497 0.34,-0.497C0.299,-0.497 0.261,-0.487 0.228,-0.468C0.195,-0.448 0.168,-0.421 0.149,-0.387C0.13,-0.353 0.12,-0.315 0.12,-0.273C0.12,-0.231 0.13,-0.193 0.149,-0.159C0.168,-0.125 0.195,-0.098 0.228,-0.079C0.261,-0.06 0.299,-0.05 0.34,-0.05Z" style="fill:white;fill-rule:nonzero;"/>
            </g>
            <g transform="matrix(64,0,0,64,770.507,232)">
                <path d="M0.337,-0.061C0.346,-0.061 0.354,-0.058 0.36,-0.053C0.365,-0.047 0.368,-0.039 0.368,-0.03C0.368,-0.021 0.365,-0.014 0.36,-0.009C0.354,-0.003 0.346,0 0.337,0L0.314,0C0.277,0 0.245,-0.008 0.216,-0.025C0.187,-0.042 0.165,-0.065 0.149,-0.094C0.133,-0.123 0.125,-0.155 0.125,-0.192L0.125,-0.473L0.047,-0.473C0.039,-0.473 0.033,-0.475 0.028,-0.481C0.023,-0.486 0.02,-0.492 0.02,-0.5C0.02,-0.508 0.023,-0.515 0.028,-0.52C0.033,-0.525 0.039,-0.527 0.047,-0.527L0.125,-0.527L0.125,-0.69C0.125,-0.699 0.128,-0.707 0.134,-0.713C0.139,-0.718 0.146,-0.721 0.155,-0.721C0.164,-0.721 0.172,-0.718 0.178,-0.713C0.183,-0.707 0.186,-0.699 0.186,-0.69L0.186,-0.527L0.318,-0.527C0.326,-0.527 0.333,-0.525 0.338,-0.52C0.343,-0.515 0.345,-0.508 0.345,-0.5C0.345,-0.492 0.343,-0.486 0.338,-0.481C0.333,-0.475 0.326,-0.473 0.318,-0.473L0.186,-0.473L0.186,-0.192C0.186,-0.153 0.198,-0.122 0.222,-0.098C0.246,-0.073 0.277,-0.061 0.315,-0.061L0.337,-0.061Z" style="fill:white;fill-rule:nonzero;"/>
            </g>
            <g transform="matrix(64,0,0,64,796.299,232)">
                <path d="M0.34,-0.553C0.392,-0.553 0.439,-0.541 0.482,-0.517C0.525,-0.492 0.558,-0.459 0.583,-0.416C0.607,-0.373 0.619,-0.326 0.619,-0.273L0.619,-0.03C0.619,-0.021 0.616,-0.014 0.611,-0.009C0.606,-0.003 0.598,0 0.589,0C0.58,0 0.573,-0.003 0.568,-0.009C0.562,-0.014 0.559,-0.021 0.559,-0.03L0.559,-0.108C0.537,-0.073 0.507,-0.045 0.469,-0.025C0.43,-0.004 0.387,0.006 0.34,0.006C0.287,0.006 0.24,-0.006 0.197,-0.031C0.154,-0.055 0.121,-0.088 0.097,-0.131C0.072,-0.174 0.06,-0.221 0.06,-0.273C0.06,-0.326 0.072,-0.373 0.097,-0.416C0.121,-0.459 0.154,-0.492 0.197,-0.517C0.24,-0.541 0.287,-0.553 0.34,-0.553ZM0.34,-0.05C0.381,-0.05 0.419,-0.06 0.452,-0.079C0.485,-0.098 0.511,-0.125 0.531,-0.159C0.55,-0.193 0.559,-0.231 0.559,-0.273C0.559,-0.315 0.55,-0.353 0.531,-0.387C0.511,-0.421 0.485,-0.448 0.452,-0.468C0.419,-0.487 0.381,-0.497 0.34,-0.497C0.299,-0.497 0.261,-0.487 0.228,-0.468C0.195,-0.448 0.168,-0.421 0.149,-0.387C0.13,-0.353 0.12,-0.315 0.12,-0.273C0.12,-0.231 0.13,-0.193 0.149,-0.159C0.168,-0.125 0.195,-0.098 0.228,-0.079C0.261,-0.06 0.299,-0.05 0.34,-0.05Z" style="fill:white;fill-rule:nonzero;"/>
            </g>
        </g>
    </g>
</svg>
