<?xml version="1.0" encoding="UTF-8" standalone="no"?>
<!DOCTYPE svg PUBLIC "-//W3C//DTD SVG 1.1//EN" "http://www.w3.org/Graphics/SVG/1.1/DTD/svg11.dtd">
<svg width="100%" height="100%" viewBox="0 0 1920 300" version="1.1" xmlns="http://www.w3.org/2000/svg" xmlns:xlink="http://www.w3.org/1999/xlink" xml:space="preserve" xmlns:serif="http://www.serif.com/" style="fill-rule:evenodd;clip-rule:evenodd;stroke-linejoin:round;stroke-miterlimit:2;">
    <g id="BG" transform="matrix(1,0,0,3.2,0,-810)">
        <rect x="0" y="0" width="1920" height="600" style="fill:rgb(43,43,43);"/>
    </g>
    <g id="Specs" transform="matrix(0.653934,0,0,0.653934,-401.218,-280.6)">
        <g transform="matrix(1,0,0,0.509363,550.5,71.7248)">
            <rect x="141.75" y="960" width="361.5" height="267" style="fill:rgb(127,166,70);"/>
        </g>
        <g transform="matrix(1,0,0,0.509363,550.5,226.475)">
            <rect x="141.75" y="960" width="361.5" height="267" style="fill:rgb(127,166,70);"/>
        </g>
        <g id="Specs1" serif:id="Specs" transform="matrix(1,0,0,1,263.421,284.113)">
            <g transform="matrix(64,0,0,64,510.667,232)">
                <path d="M0.325,-0.791C0.374,-0.791 0.418,-0.779 0.459,-0.756C0.5,-0.733 0.53,-0.705 0.549,-0.672C0.552,-0.667 0.553,-0.662 0.553,-0.656C0.553,-0.651 0.552,-0.646 0.549,-0.642C0.546,-0.637 0.541,-0.634 0.536,-0.631C0.533,-0.63 0.529,-0.629 0.524,-0.629C0.512,-0.629 0.503,-0.634 0.496,-0.644C0.457,-0.702 0.4,-0.731 0.325,-0.731C0.27,-0.731 0.227,-0.719 0.196,-0.694C0.165,-0.669 0.149,-0.634 0.149,-0.589C0.149,-0.552 0.164,-0.52 0.195,-0.495C0.226,-0.47 0.273,-0.452 0.337,-0.441C0.421,-0.427 0.482,-0.401 0.521,-0.364C0.56,-0.326 0.579,-0.276 0.579,-0.215C0.579,-0.169 0.569,-0.129 0.549,-0.095C0.528,-0.061 0.5,-0.035 0.463,-0.017C0.426,0.001 0.383,0.01 0.334,0.01C0.271,0.01 0.217,-0.003 0.171,-0.029C0.125,-0.054 0.091,-0.089 0.068,-0.134C0.066,-0.138 0.065,-0.142 0.065,-0.146C0.065,-0.154 0.068,-0.161 0.074,-0.166C0.079,-0.171 0.087,-0.174 0.096,-0.174C0.109,-0.174 0.119,-0.168 0.125,-0.155C0.143,-0.122 0.17,-0.096 0.205,-0.078C0.241,-0.059 0.284,-0.05 0.334,-0.05C0.391,-0.05 0.437,-0.064 0.469,-0.093C0.502,-0.122 0.519,-0.162 0.519,-0.215C0.519,-0.26 0.503,-0.298 0.47,-0.328C0.438,-0.357 0.39,-0.376 0.327,-0.385C0.253,-0.396 0.195,-0.42 0.153,-0.458C0.11,-0.495 0.089,-0.541 0.089,-0.595C0.089,-0.634 0.099,-0.668 0.118,-0.698C0.138,-0.727 0.166,-0.75 0.202,-0.767C0.237,-0.783 0.278,-0.791 0.325,-0.791Z" style="fill:white;fill-rule:nonzero;"/>
            </g>
            <g transform="matrix(64,0,0,64,551.883,232)">
                <path d="M0.369,-0.553C0.422,-0.553 0.469,-0.541 0.512,-0.517C0.555,-0.492 0.588,-0.459 0.613,-0.416C0.637,-0.373 0.649,-0.326 0.649,-0.273C0.649,-0.221 0.637,-0.174 0.613,-0.131C0.588,-0.088 0.555,-0.055 0.512,-0.031C0.469,-0.006 0.422,0.006 0.369,0.006C0.322,0.006 0.279,-0.004 0.241,-0.025C0.202,-0.045 0.172,-0.073 0.15,-0.108L0.15,0.204C0.15,0.213 0.147,0.221 0.142,0.226C0.137,0.231 0.129,0.234 0.12,0.234C0.111,0.234 0.104,0.231 0.099,0.226C0.093,0.221 0.09,0.213 0.09,0.204L0.09,-0.277L0.09,-0.279C0.091,-0.33 0.103,-0.377 0.128,-0.419C0.153,-0.461 0.186,-0.494 0.229,-0.518C0.271,-0.541 0.318,-0.553 0.369,-0.553ZM0.369,-0.05C0.41,-0.05 0.448,-0.06 0.481,-0.079C0.514,-0.098 0.541,-0.125 0.56,-0.159C0.579,-0.193 0.589,-0.231 0.589,-0.273C0.589,-0.315 0.579,-0.353 0.56,-0.387C0.541,-0.421 0.514,-0.448 0.481,-0.468C0.448,-0.487 0.41,-0.497 0.369,-0.497C0.328,-0.497 0.29,-0.487 0.257,-0.468C0.224,-0.448 0.198,-0.421 0.179,-0.387C0.16,-0.353 0.15,-0.315 0.15,-0.273C0.15,-0.231 0.16,-0.193 0.179,-0.159C0.198,-0.125 0.224,-0.098 0.257,-0.079C0.29,-0.06 0.328,-0.05 0.369,-0.05Z" style="fill:white;fill-rule:nonzero;"/>
            </g>
            <g transform="matrix(64,0,0,64,597.259,232)">
                <path d="M0.317,-0.552C0.366,-0.552 0.409,-0.541 0.448,-0.518C0.486,-0.495 0.516,-0.463 0.537,-0.422C0.558,-0.381 0.569,-0.335 0.569,-0.283C0.569,-0.274 0.566,-0.268 0.561,-0.263C0.556,-0.258 0.549,-0.255 0.54,-0.255L0.121,-0.255C0.123,-0.216 0.133,-0.181 0.152,-0.15C0.171,-0.118 0.196,-0.094 0.227,-0.077C0.258,-0.06 0.293,-0.051 0.332,-0.051C0.358,-0.051 0.384,-0.056 0.41,-0.065C0.437,-0.074 0.458,-0.085 0.473,-0.1C0.48,-0.105 0.487,-0.108 0.494,-0.108C0.501,-0.108 0.507,-0.106 0.512,-0.102C0.519,-0.096 0.523,-0.089 0.523,-0.081C0.523,-0.074 0.52,-0.068 0.514,-0.062C0.493,-0.043 0.465,-0.027 0.431,-0.014C0.396,-0.001 0.363,0.005 0.332,0.005C0.279,0.005 0.233,-0.007 0.192,-0.031C0.151,-0.054 0.118,-0.087 0.095,-0.13C0.072,-0.172 0.06,-0.22 0.06,-0.273C0.06,-0.327 0.071,-0.375 0.093,-0.418C0.114,-0.46 0.145,-0.493 0.184,-0.517C0.223,-0.54 0.267,-0.552 0.317,-0.552ZM0.317,-0.496C0.265,-0.496 0.221,-0.479 0.186,-0.444C0.15,-0.409 0.129,-0.364 0.122,-0.307L0.511,-0.307C0.506,-0.364 0.486,-0.409 0.451,-0.444C0.416,-0.479 0.371,-0.496 0.317,-0.496Z" style="fill:white;fill-rule:nonzero;"/>
            </g>
            <g transform="matrix(64,0,0,64,634.955,232)">
                <path d="M0.317,-0.552C0.36,-0.552 0.399,-0.544 0.434,-0.527C0.469,-0.51 0.5,-0.486 0.526,-0.453C0.531,-0.446 0.533,-0.441 0.533,-0.436C0.533,-0.427 0.528,-0.419 0.519,-0.414C0.514,-0.41 0.509,-0.408 0.503,-0.408C0.494,-0.408 0.486,-0.412 0.48,-0.42C0.437,-0.471 0.383,-0.496 0.317,-0.496C0.278,-0.496 0.244,-0.487 0.214,-0.468C0.184,-0.449 0.161,-0.422 0.145,-0.388C0.128,-0.354 0.12,-0.316 0.12,-0.273C0.12,-0.231 0.129,-0.193 0.147,-0.159C0.165,-0.125 0.19,-0.098 0.222,-0.079C0.254,-0.06 0.291,-0.05 0.332,-0.05C0.391,-0.05 0.438,-0.066 0.473,-0.099C0.479,-0.105 0.486,-0.108 0.494,-0.108C0.501,-0.108 0.507,-0.106 0.512,-0.101C0.519,-0.095 0.522,-0.088 0.522,-0.079C0.522,-0.072 0.519,-0.066 0.514,-0.061C0.491,-0.04 0.463,-0.023 0.432,-0.012C0.401,0 0.367,0.006 0.332,0.006C0.281,0.006 0.234,-0.006 0.193,-0.031C0.152,-0.055 0.119,-0.088 0.096,-0.131C0.072,-0.174 0.06,-0.221 0.06,-0.273C0.06,-0.326 0.071,-0.373 0.093,-0.416C0.115,-0.458 0.146,-0.491 0.185,-0.516C0.224,-0.54 0.268,-0.552 0.317,-0.552Z" style="fill:white;fill-rule:nonzero;"/>
            </g>
            <g transform="matrix(64,0,0,64,672.907,232)">
                <path d="M0.277,-0.553C0.361,-0.553 0.425,-0.523 0.468,-0.463C0.472,-0.458 0.474,-0.453 0.474,-0.446C0.474,-0.437 0.469,-0.429 0.458,-0.423C0.451,-0.42 0.446,-0.419 0.443,-0.419C0.433,-0.419 0.425,-0.423 0.418,-0.432C0.384,-0.475 0.336,-0.497 0.275,-0.497C0.234,-0.497 0.202,-0.488 0.178,-0.47C0.154,-0.453 0.142,-0.431 0.142,-0.405C0.142,-0.378 0.154,-0.357 0.177,-0.341C0.2,-0.325 0.238,-0.313 0.292,-0.305C0.363,-0.295 0.413,-0.276 0.445,-0.249C0.475,-0.221 0.491,-0.187 0.491,-0.148C0.491,-0.117 0.481,-0.09 0.462,-0.067C0.442,-0.044 0.416,-0.026 0.383,-0.013C0.35,0 0.315,0.006 0.276,0.006C0.237,0.006 0.2,-0.001 0.163,-0.015C0.126,-0.028 0.096,-0.049 0.072,-0.077C0.067,-0.082 0.065,-0.088 0.065,-0.095C0.065,-0.104 0.069,-0.112 0.078,-0.118C0.082,-0.121 0.088,-0.123 0.095,-0.123C0.104,-0.123 0.112,-0.119 0.118,-0.112C0.151,-0.071 0.205,-0.051 0.279,-0.051C0.332,-0.051 0.371,-0.06 0.396,-0.079C0.421,-0.098 0.433,-0.122 0.433,-0.151C0.433,-0.204 0.382,-0.237 0.28,-0.252C0.215,-0.261 0.167,-0.279 0.134,-0.305C0.101,-0.331 0.084,-0.362 0.084,-0.399C0.084,-0.448 0.102,-0.486 0.138,-0.513C0.173,-0.54 0.22,-0.553 0.277,-0.553Z" style="fill:white;fill-rule:nonzero;"/>
            </g>
        </g>
    </g>
</svg>
